<?xml version="1.0" encoding="utf-8"?>
<!-- Generator: Adobe Illustrator 23.0.1, SVG Export Plug-In . SVG Version: 6.00 Build 0)  -->
<svg version="1.1" id="Layer_1" xmlns="http://www.w3.org/2000/svg" xmlns:xlink="http://www.w3.org/1999/xlink" x="0px" y="0px"
	 viewBox="0 0 50 50" style="enable-background:new 0 0 50 50;" xml:space="preserve">
<style type="text/css">
	.st0{fill:#FFFFFF;}
	.st1{fill:#0079AD;}
	.st2{fill:#616976;}
</style>
<g>
	<circle class="st0" cx="25" cy="25" r="25"/>
	<g>
		<path class="st1" d="M34.87,2.92V25c0,5.45-4.42,9.87-9.87,9.87s-9.87-4.42-9.87-9.87s4.42-9.87,9.87-9.87
			c2.57,0,4.91,0.98,6.67,2.6V1.75C29.55,1.15,27.31,0.82,25,0.82C11.65,0.82,0.82,11.65,0.82,25S11.65,49.18,25,49.18
			S49.18,38.35,49.18,25C49.18,15.16,43.3,6.7,34.87,2.92z"/>
		<path class="st0" d="M25,15.13c-5.45,0-9.87,4.42-9.87,9.87s4.42,9.87,9.87,9.87s9.87-4.42,9.87-9.87V2.92
			c-1.03-0.46-2.1-0.85-3.2-1.17v15.97C29.91,16.11,27.57,15.13,25,15.13z"/>
		<circle class="st2" cx="25" cy="25" r="6.03"/>
	</g>
</g>
</svg>
