<?xml version="1.0" encoding="utf-8"?>
<!-- Generator: Adobe Illustrator 23.0.1, SVG Export Plug-In . SVG Version: 6.00 Build 0)  -->
<svg version="1.1" id="Layer_1" xmlns="http://www.w3.org/2000/svg" xmlns:xlink="http://www.w3.org/1999/xlink" x="0px" y="0px"
	 viewBox="0 0 752.64 134.28" style="enable-background:new 0 0 752.64 134.28;" xml:space="preserve">
<style type="text/css">
	.st0{fill:#FFFFFF;}
</style>
<g>
	<path class="st0" d="M56.25,83.83C50.85,74.23,45,64.76,38.71,55.4c-6.29-9.35-12.98-18.18-20.08-26.49v54.92H0V0h15.36
		c2.66,2.66,5.6,5.93,8.83,9.8c3.22,3.87,6.51,8,9.86,12.4c3.35,4.4,6.67,8.95,9.98,13.67c3.31,4.72,6.41,9.25,9.31,13.61V0H72.1
		v83.83H56.25z"/>
	<path class="st0" d="M147.69,83.83c-0.93-2.91-1.94-5.91-3.01-8.97s-2.14-6.13-3.21-9.17h-32.74c-1.06,3.06-2.12,6.12-3.18,9.2
		c-1.06,3.07-2.05,6.06-2.97,8.95h-19.6c3.15-9.03,6.15-17.38,8.98-25.04c2.83-7.66,5.6-14.88,8.31-21.65
		c2.71-6.77,5.38-13.2,8.01-19.29c2.63-6.09,5.36-12.04,8.19-17.84h17.89c2.75,5.81,5.47,11.75,8.14,17.84
		c2.67,6.09,5.37,12.52,8.08,19.29c2.71,6.77,5.49,13.99,8.32,21.65c2.84,7.66,5.83,16.01,8.99,25.04H147.69z M125.02,18.99
		c-0.42,1.22-1.04,2.87-1.85,4.97c-0.81,2.1-1.73,4.52-2.77,7.26c-1.04,2.75-2.19,5.77-3.47,9.07c-1.28,3.3-2.58,6.76-3.9,10.39H137
		c-1.28-3.63-2.53-7.11-3.73-10.42c-1.2-3.31-2.35-6.34-3.43-9.09c-1.08-2.75-2.03-5.17-2.85-7.26
		C126.18,21.82,125.52,20.18,125.02,18.99z"/>
	<path class="st0" d="M200.92,0c1.46,2.66,3.13,5.95,5.03,9.86c1.9,3.91,3.88,8.15,5.94,12.7c2.06,4.56,4.1,9.21,6.13,13.97
		c2.02,4.76,3.92,9.23,5.7,13.43c1.78-4.19,3.68-8.67,5.7-13.43c2.02-4.76,4.06-9.41,6.12-13.97c2.06-4.56,4.04-8.79,5.94-12.7
		c1.9-3.91,3.58-7.2,5.03-9.86h17.18c0.81,5.56,1.55,11.79,2.24,18.69c0.68,6.9,1.29,14.07,1.81,21.53
		c0.52,7.46,1.01,14.94,1.45,22.44c0.44,7.5,0.83,14.56,1.15,21.17h-18.39c-0.24-8.14-0.56-17.02-0.97-26.61
		c-0.4-9.6-1.01-19.27-1.81-29.03c-1.46,3.39-3.08,7.14-4.85,11.25c-1.78,4.11-3.54,8.23-5.28,12.34
		c-1.74,4.11-3.42,8.04-5.04,11.79c-1.62,3.75-2.99,6.96-4.13,9.62h-13.19c-1.13-2.66-2.51-5.87-4.13-9.62
		c-1.62-3.75-3.3-7.68-5.04-11.79c-1.74-4.11-3.5-8.23-5.28-12.34c-1.78-4.11-3.4-7.86-4.85-11.25c-0.81,9.76-1.41,19.44-1.81,29.03
		c-0.4,9.6-0.73,18.47-0.97,26.61h-18.39c0.32-6.61,0.71-13.67,1.15-21.17c0.44-7.5,0.93-14.98,1.45-22.44
		c0.52-7.46,1.13-14.64,1.81-21.53c0.68-6.9,1.43-13.12,2.24-18.69H200.92z"/>
	<path class="st0" d="M309.43,0c1.46,2.66,3.13,5.95,5.03,9.86c1.9,3.91,3.88,8.15,5.94,12.7c2.06,4.56,4.1,9.21,6.13,13.97
		c2.02,4.76,3.92,9.23,5.7,13.43c1.78-4.19,3.68-8.67,5.7-13.43c2.02-4.76,4.06-9.41,6.12-13.97c2.06-4.56,4.04-8.79,5.94-12.7
		c1.9-3.91,3.58-7.2,5.03-9.86h17.18c0.81,5.56,1.55,11.79,2.24,18.69c0.68,6.9,1.29,14.07,1.81,21.53
		c0.52,7.46,1.01,14.94,1.45,22.44c0.44,7.5,0.83,14.56,1.15,21.17h-18.39c-0.24-8.14-0.56-17.02-0.97-26.61
		c-0.4-9.6-1.01-19.27-1.81-29.03c-1.46,3.39-3.08,7.14-4.85,11.25c-1.78,4.11-3.54,8.23-5.28,12.34
		c-1.74,4.11-3.42,8.04-5.04,11.79c-1.62,3.75-2.99,6.96-4.13,9.62h-13.19c-1.13-2.66-2.51-5.87-4.13-9.62
		c-1.62-3.75-3.3-7.68-5.04-11.79c-1.74-4.11-3.5-8.23-5.28-12.34c-1.78-4.11-3.4-7.86-4.85-11.25c-0.81,9.76-1.41,19.44-1.81,29.03
		c-0.4,9.6-0.73,18.47-0.97,26.61h-18.39c0.32-6.61,0.71-13.67,1.15-21.17c0.44-7.5,0.93-14.98,1.45-22.44
		c0.52-7.46,1.13-14.64,1.81-21.53c0.68-6.9,1.43-13.12,2.24-18.69H309.43z"/>
	<path class="st0" d="M451.91,83.83c-0.93-2.91-1.94-5.91-3.01-8.97c-1.07-3.07-2.14-6.13-3.21-9.17h-32.74
		c-1.06,3.06-2.12,6.12-3.18,9.2c-1.06,3.07-2.05,6.06-2.97,8.95h-19.6c3.15-9.03,6.15-17.38,8.98-25.04
		c2.83-7.66,5.6-14.88,8.31-21.65c2.71-6.77,5.38-13.2,8.01-19.29c2.63-6.09,5.36-12.04,8.19-17.84h17.89
		c2.75,5.81,5.47,11.75,8.14,17.84c2.67,6.09,5.37,12.52,8.08,19.29c2.71,6.77,5.49,13.99,8.32,21.65
		c2.83,7.66,5.83,16.01,8.99,25.04H451.91z M429.24,18.99c-0.42,1.22-1.04,2.87-1.85,4.97c-0.81,2.1-1.73,4.52-2.77,7.26
		c-1.04,2.75-2.19,5.77-3.47,9.07c-1.28,3.3-2.58,6.76-3.9,10.39h23.97c-1.28-3.63-2.53-7.11-3.73-10.42
		c-1.2-3.31-2.35-6.34-3.43-9.09c-1.08-2.75-2.03-5.17-2.85-7.26C430.4,21.82,429.74,20.18,429.24,18.99z"/>
	<path class="st0" d="M507.45-0.97c12.58,0,22.22,2.24,28.91,6.71c6.69,4.48,10.04,11.43,10.04,20.87c0,5.89-1.35,10.67-4.05,14.33
		c-2.7,3.67-6.59,6.55-11.67,8.65c1.69,2.1,3.47,4.5,5.32,7.2c1.85,2.7,3.69,5.52,5.5,8.47c1.81,2.94,3.57,6.01,5.26,9.19
		c1.69,3.19,3.27,6.31,4.72,9.38h-21.1c-1.54-2.74-3.1-5.52-4.68-8.35c-1.58-2.82-3.2-5.56-4.86-8.23c-1.66-2.66-3.3-5.18-4.92-7.56
		c-1.62-2.38-3.24-4.54-4.86-6.47h-9.31v30.6h-18.87V1.21c4.11-0.81,8.37-1.37,12.76-1.69C500.05-0.81,503.98-0.97,507.45-0.97z
		 M508.53,15.12c-1.37,0-2.6,0.04-3.69,0.12c-1.09,0.08-2.12,0.16-3.08,0.24v22.74h5.32c7.1,0,12.18-0.89,15.24-2.66
		c3.06-1.77,4.6-4.8,4.6-9.07c0-4.11-1.55-7.03-4.66-8.77C519.16,15.99,514.58,15.12,508.53,15.12z"/>
	<path class="st0" d="M563.57,0h18.87v83.83h-18.87V0z"/>
	<path class="st0" d="M658.05,83.83c-5.4-9.6-11.25-19.07-17.54-28.43c-6.29-9.35-12.99-18.18-20.08-26.49v54.92H601.8V0h15.36
		c2.66,2.66,5.6,5.93,8.83,9.8c3.22,3.87,6.51,8,9.86,12.4c3.35,4.4,6.67,8.95,9.98,13.67c3.31,4.72,6.41,9.25,9.31,13.61V0h18.75
		v83.83H658.05z"/>
	<path class="st0" d="M693.25,83.83V0h56.61v15.85h-37.74V32.3h33.51v15.48h-33.51v20.2h40.52v15.85H693.25z"/>
	<path class="st0" d="M304.51,118.88c0,2.5,0.39,4.89,1.18,7.16c0.78,2.27,1.81,4.31,3.09,6.11l-3.31,2.13
		c-1.8-2.1-3.19-4.45-4.17-7.06c-0.98-2.61-1.46-5.39-1.46-8.34c0-2.95,0.49-5.73,1.46-8.34c0.98-2.61,2.37-4.96,4.17-7.06
		l3.31,2.13c-1.27,1.8-2.3,3.84-3.09,6.11C304.9,113.99,304.51,116.38,304.51,118.88z"/>
	<path class="st0" d="M318.1,106.09c3.29,0,5.81,0.58,7.57,1.73c1.76,1.16,2.64,3.05,2.64,5.68c0,2.65-0.89,4.57-2.67,5.74
		c-1.78,1.18-4.33,1.77-7.64,1.77h-1.56v7.38h-4.96v-21.73c1.08-0.21,2.23-0.36,3.44-0.45C316.12,106.13,317.19,106.09,318.1,106.09
		z M318.42,110.32c-0.36,0-0.72,0.01-1.07,0.03c-0.35,0.02-0.65,0.04-0.91,0.06v6.36H318c1.72,0,3.01-0.23,3.88-0.7
		c0.87-0.47,1.3-1.34,1.3-2.61c0-0.62-0.11-1.12-0.33-1.53c-0.22-0.4-0.54-0.73-0.95-0.97c-0.41-0.24-0.92-0.41-1.51-0.51
		C319.79,110.37,319.14,110.32,318.42,110.32z"/>
	<path class="st0" d="M348.74,106.34v4.23h-6.65v17.82h-4.96v-17.82h-6.65v-4.23H348.74z"/>
	<path class="st0" d="M361.08,115.39c0.89-1.5,1.74-3,2.55-4.51c0.81-1.5,1.55-3.02,2.23-4.54h5.47c-1.21,2.38-2.46,4.68-3.75,6.91
		c-1.29,2.23-2.66,4.47-4.1,6.71v8.43h-4.96v-8.37c-1.44-2.25-2.82-4.5-4.12-6.75c-1.3-2.25-2.56-4.56-3.77-6.94h5.76
		c0.68,1.52,1.41,3.04,2.19,4.54C359.35,112.38,360.19,113.88,361.08,115.39z"/>
	<path class="st0" d="M376.99,118.88c0-2.5-0.39-4.89-1.18-7.16c-0.78-2.27-1.81-4.31-3.09-6.11l3.31-2.13
		c1.8,2.1,3.19,4.45,4.17,7.06c0.98,2.61,1.46,5.39,1.46,8.34c0,2.95-0.49,5.73-1.46,8.34c-0.98,2.61-2.37,4.96-4.17,7.06
		l-3.31-2.13c1.27-1.8,2.3-3.84,3.09-6.11C376.6,123.77,376.99,121.38,376.99,118.88z"/>
	<path class="st0" d="M408.81,124.13v4.26h-14.73v-22.05h4.96v17.79H408.81z"/>
	<path class="st0" d="M425.87,106.34v4.23h-6.65v17.82h-4.96v-17.82h-6.65v-4.23H425.87z"/>
	<path class="st0" d="M448.36,117.35c0,1.91-0.3,3.57-0.89,5c-0.59,1.42-1.44,2.6-2.53,3.53s-2.42,1.63-3.99,2.1
		c-1.57,0.47-3.33,0.7-5.28,0.7c-0.89,0-1.93-0.04-3.12-0.11c-1.19-0.07-2.35-0.23-3.5-0.46v-21.48c1.15-0.21,2.34-0.35,3.58-0.43
		c1.24-0.07,2.31-0.11,3.2-0.11c1.89,0,3.6,0.21,5.14,0.64c1.54,0.42,2.86,1.09,3.96,2c1.1,0.91,1.95,2.08,2.55,3.5
		C448.06,113.65,448.36,115.36,448.36,117.35z M434.01,124.35c0.23,0.02,0.5,0.04,0.81,0.05c0.31,0.01,0.67,0.02,1.1,0.02
		c2.48,0,4.32-0.63,5.52-1.88c1.2-1.25,1.8-2.98,1.8-5.19c0-2.31-0.57-4.06-1.72-5.25c-1.15-1.19-2.96-1.78-5.44-1.78
		c-0.34,0-0.69,0.01-1.05,0.02s-0.7,0.04-1.02,0.08V124.35z"/>
</g>
</svg>
